<?xml version="1.0"?>
<svg xmlns="http://www.w3.org/2000/svg" xmlns:xlink="http://www.w3.org/1999/xlink" version="1.1" viewBox="0 0 192 192" width="48px" height="48px"><g fill="none" fill-rule="nonzero" stroke="none" stroke-width="1" stroke-linecap="butt" stroke-linejoin="miter" stroke-miterlimit="10" stroke-dasharray="" stroke-dashoffset="0" font-family="none" font-weight="none" font-size="none" text-anchor="none" style="mix-blend-mode: normal"><path d="M0,192v-192h192v192z" fill="none"/><path d="M96,192c-53.01934,0 -96,-42.98066 -96,-96v0c0,-53.01934 42.98066,-96 96,-96v0c53.01934,0 96,42.98066 96,96v0c0,53.01934 -42.98066,96 -96,96z" fill="#34495e"/><g fill="#03a9f4"><g id="surface1"><path d="M164.42405,51.91778c-5.03383,2.22736 -10.43889,3.71226 -16.14092,4.41017c5.79113,-3.44498 10.2607,-8.93913 12.35441,-15.42817c-5.43475,3.19255 -11.44862,5.52385 -17.83371,6.75632c-5.10807,-5.4199 -12.39896,-8.77579 -20.47685,-8.77579c-15.50241,0 -28.07956,12.45836 -28.07956,27.82713c0,2.16796 0.25243,4.29138 0.7276,6.34054c-23.32786,-1.15822 -44.02744,-12.25047 -57.86676,-29.08929c-2.43524,4.11319 -3.80136,8.92428 -3.80136,14.01751c0,9.65188 4.94473,18.16039 12.48805,23.16452c-4.60321,-0.13364 -8.93913,-1.42551 -12.72564,-3.47468c0,0.0891 0,0.20789 0,0.32668c0,13.49779 9.68158,24.73852 22.51117,27.30741c-2.34615,0.63851 -4.82595,0.99489 -7.37998,0.99489c-1.81158,0 -3.57862,-0.20788 -5.28626,-0.51972c3.56377,11.03285 13.92841,19.09589 26.22343,19.33347c-9.62219,7.45422 -21.72417,11.92379 -34.88043,11.92379c-2.27191,0 -4.49926,-0.13364 -6.69692,-0.40093c12.44351,7.87 27.20347,12.48805 43.04741,12.48805c51.64501,0 79.90276,-42.4089 79.90276,-79.20485c0,-1.20278 -0.04455,-2.40555 -0.10394,-3.57862c5.509,-3.9053 10.2607,-8.80549 14.01751,-14.41843"/></g></g></g></svg>
