<?xml version="1.0"?>
<svg xmlns="http://www.w3.org/2000/svg" xmlns:xlink="http://www.w3.org/1999/xlink" version="1.1" viewBox="0 0 192 192" width="48px" height="48px"><g fill="none" fill-rule="nonzero" stroke="none" stroke-width="1" stroke-linecap="butt" stroke-linejoin="miter" stroke-miterlimit="10" stroke-dasharray="" stroke-dashoffset="0" font-family="none" font-weight="none" font-size="none" text-anchor="none" style="mix-blend-mode: normal"><path d="M0,192v-192h192v192z" fill="none"/><path d="M96,192c-53.01934,0 -96,-42.98066 -96,-96v0c0,-53.01934 42.98066,-96 96,-96v0c53.01934,0 96,42.98066 96,96v0c0,53.01934 -42.98066,96 -96,96z" fill="#3f4cb9"/><g><g id="surface1"><path d="M165.12,145.92c0,10.605 -8.595,19.2 -19.2,19.2h-99.84c-10.605,0 -19.2,-8.595 -19.2,-19.2v-99.84c0,-10.605 8.595,-19.2 19.2,-19.2h99.84c10.605,0 19.2,8.595 19.2,19.2z" fill="#3f51b5"/><path d="M135.81,99.84h-12.93v49.92h-19.2v-49.92h-11.52v-15.36h11.52v-9.255c0.015,-13.47 5.61,-21.465 21.48,-21.465h13.08v15.36h-8.775c-6.18,0 -6.585,2.31 -6.585,6.615v8.745h15.36z" fill="#ffffff"/></g></g><path d="M96,192c-53.01934,0 -96,-42.98066 -96,-96v0c0,-53.01934 42.98066,-96 96,-96v0c53.01934,0 96,42.98066 96,96v0c0,53.01934 -42.98066,96 -96,96z" fill="none"/><path d="M96,188.16c-50.89856,0 -92.16,-41.26144 -92.16,-92.16v0c0,-50.89856 41.26144,-92.16 92.16,-92.16v0c50.89856,0 92.16,41.26144 92.16,92.16v0c0,50.89856 -41.26144,92.16 -92.16,92.16z" fill="none"/></g></svg>
