<?xml version="1.0"?>
<svg xmlns="http://www.w3.org/2000/svg" xmlns:xlink="http://www.w3.org/1999/xlink" version="1.1" viewBox="0 0 192 192" width="48px" height="48px"><g fill="none" fill-rule="nonzero" stroke="none" stroke-width="1" stroke-linecap="butt" stroke-linejoin="miter" stroke-miterlimit="10" stroke-dasharray="" stroke-dashoffset="0" font-family="none" font-weight="none" font-size="none" text-anchor="none" style="mix-blend-mode: normal"><path d="M0,192v-192h192v192z" fill="none"/><path d="M96,192c-53.01934,0 -96,-42.98066 -96,-96v0c0,-53.01934 42.98066,-96 96,-96v0c53.01934,0 96,42.98066 96,96v0c0,53.01934 -42.98066,96 -96,96z" fill="#34495e"/><g id="Layer_1" fill="#0288d1"><path d="M46.80316,64.42105h0.16421v0c8.81053,0 14.29579,-6.31579 14.29579,-14.21053c-0.16421,-8.06842 -5.48526,-14.21053 -14.12842,-14.21053c-8.64316,0 -14.29263,6.14211 -14.29263,14.21053c0,7.89474 5.48211,14.21053 13.96105,14.21053z"/><rect x="10.4" y="23.4" transform="scale(3.15789,3.15789)" width="9" height="26"/><path d="M159.15789,103.89474c0,-16.56947 -13.43053,-30 -30,-30c-9.64105,0 -18.19579,4.56632 -23.68421,11.63368v-11.63368h-28.42105v82.10526h28.42105v-47.36842v0c0,-6.97579 5.65579,-12.63158 12.63158,-12.63158c6.97579,0 12.63158,5.65579 12.63158,12.63158v47.36842h28.42105c0,0 0,-47.51053 0,-52.10526z"/></g></g></svg>
