<?xml version="1.0"?>
<svg xmlns="http://www.w3.org/2000/svg" xmlns:xlink="http://www.w3.org/1999/xlink" version="1.1" viewBox="0 0 192 192" width="48px" height="48px"><g fill="none" fill-rule="nonzero" stroke="none" stroke-width="1" stroke-linecap="butt" stroke-linejoin="miter" stroke-miterlimit="10" stroke-dasharray="" stroke-dashoffset="0" font-family="none" font-weight="none" font-size="none" text-anchor="none" style="mix-blend-mode: normal"><path d="M0,192v-192h192v192z" fill="none"/><path d="M96,192c-53.01934,0 -96,-42.98066 -96,-96v0c0,-53.01934 42.98066,-96 96,-96v0c53.01934,0 96,42.98066 96,96v0c0,53.01934 -42.98066,96 -96,96z" fill="#3498db"/><g><g id="surface1"><path d="M153.6,137.6c0,8.8375 -7.1625,16 -16,16h-83.2c-8.8375,0 -16,-7.1625 -16,-16v-83.2c0,-8.8375 7.1625,-16 16,-16h83.2c8.8375,0 16,7.1625 16,16z" fill="#0288d1"/><path d="M57.6,80h16v54.4h-16z" fill="#ffffff"/><path d="M65.55,73.6h-0.0875c-4.775,0 -7.8625,-3.5625 -7.8625,-8c0,-4.55 3.1875,-8 8.05,-8c4.8625,0 7.8625,3.45 7.95,8c0,4.4375 -3.0875,8 -8.05,8z" fill="#ffffff"/><path d="M134.4,134.4h-16v-29.1125c0,-7.0375 -3.925,-11.8375 -10.2125,-11.8375c-4.8,0 -7.4,3.2375 -8.6625,6.3625c-0.4625,1.125 -0.325,4.225 -0.325,5.7875v28.8h-16v-54.4h16v8.375c2.3125,-3.575 5.925,-8.375 15.1625,-8.375c11.45,0 20.0375,7.2 20.0375,23.275z" fill="#ffffff"/></g></g></g></svg>
