<svg width="56.693" height="56.693" xmlns="http://www.w3.org/2000/svg">

 <g>
  <title>background</title>
  <rect fill="none" id="canvas_background" height="402" width="582" y="-1" x="-1"/>
 </g>
 <g>
  <title>Layer 1</title>
  <path style="--darkreader-inline-fill:#00b5cc;" fill="#00bcd4" id="svg_1" d="m28.347,5.155c-13.6,0 -24.625,11.025 -24.625,24.625c0,13.601999 11.024,24.624998 24.625,24.624998c13.602001,0 24.625,-11.022999 24.625,-24.624998c0,-13.6 -11.023998,-24.625 -24.625,-24.625zm-7.637001,35.734999c-1.787998,0 -3.237,-1.451 -3.237,-3.237999c0,-1.789001 1.449001,-3.237999 3.237,-3.237999c1.787001,0 3.238001,1.448997 3.238001,3.237999c0,1.785999 -1.451,3.237999 -3.238001,3.237999zm8.123001,0.021c0,-3.056999 -1.182001,-5.927998 -3.33,-8.082001c-2.143,-2.153999 -4.992001,-3.341999 -8.028,-3.341999l0,-4.674c8.84,0 16.030001,7.223 16.030001,16.098l-4.672001,0zm8.256001,0.004002c0,-10.867001 -8.795,-19.711 -19.606001,-19.711l0,-4.676001c13.387001,0 24.280001,10.941999 24.280001,24.387001l-4.674,0z"/>
 </g>
</svg>