<?xml version="1.0" encoding="iso-8859-1"?>
<!-- Generator: Adobe Illustrator 19.0.0, SVG Export Plug-In . SVG Version: 6.00 Build 0)  -->
<svg version="1.1" id="Layer_1" xmlns="http://www.w3.org/2000/svg" xmlns:xlink="http://www.w3.org/1999/xlink" x="0px" y="0px"
	 viewBox="0 0 473.935 473.935" style="enable-background:new 0 0 473.935 473.935;" xml:space="preserve">
<circle style="fill:#ED802C;" cx="236.967" cy="236.967" r="236.967"/>
<path style="fill:#E5772E;" d="M404.521,69.384c92.542,92.546,92.549,242.588-0.004,335.141
	c-92.538,92.538-242.591,92.538-335.133-0.004L404.521,69.384z"/>
<g>
	<path style="fill:#D56727;" d="M447.465,345.741l-158.3-158.3l-26.428,26.428l-71.135-71.139l-32.471-12.34l-33.923,33.919
		l93.309,93.313l-7.697,7.697l-54.02-54.024l-31.592,31.592l209.795,209.795C383.421,430.642,423.091,392.813,447.465,345.741z"/>
	<path style="fill:#D56727;" d="M133.956,342.28l130.068,130.068c24.194-2.75,47.27-9.149,68.688-18.63L177.615,298.621
		L133.956,342.28z"/>
</g>
<path style="fill:#FFFFFF;" d="M177.799,299.317c5.62,5.609,9.04,13.216,9.059,21.695c-0.019,8.464-3.439,16.071-9.036,21.657
	l-0.022,0.015c-5.601,5.583-13.261,8.992-21.777,8.992c-8.505,0-16.142-3.42-21.751-9.006c-5.59-5.587-9.033-13.186-9.033-21.657
	c0-8.479,3.442-16.105,9.033-21.702v0.007c5.609-5.586,13.246-9.021,21.751-9.021C164.538,290.292,172.182,293.734,177.799,299.317z
	 M177.799,299.309v0.007c0.015,0,0.015,0,0.015,0L177.799,299.309z M134.27,342.68c0,0,0,0,0-0.015c-0.007,0-0.007,0-0.007,0
	L134.27,342.68z M125.26,198.906v44.288c28.909,0.015,56.254,11.371,76.714,31.865c20.46,20.426,31.768,47.809,31.813,76.823h0.015
	v0.079h44.467c-0.037-42.181-17.186-80.389-44.905-108.13C205.641,216.092,167.445,198.932,125.26,198.906z M125.339,120.048v44.265
	c103.341,0.071,187.344,84.205,187.419,187.643h44.389c-0.03-63.932-26.013-121.851-68.007-163.872
	C247.134,146.079,189.245,120.074,125.339,120.048z"/>
<g>
</g>
<g>
</g>
<g>
</g>
<g>
</g>
<g>
</g>
<g>
</g>
<g>
</g>
<g>
</g>
<g>
</g>
<g>
</g>
<g>
</g>
<g>
</g>
<g>
</g>
<g>
</g>
<g>
</g>
</svg>
