<?xml version="1.0" encoding="UTF-8"?>
<svg xmlns="http://www.w3.org/2000/svg" xmlns:xlink="http://www.w3.org/1999/xlink" width="48pt" height="48pt" viewBox="0 0 48 48" version="1.1">
<g id="surface2342288">
<path style=" stroke:none;fill-rule:nonzero;fill:rgb(0%,73.72549%,83.137255%);fill-opacity:1;" d="M 24 4 C 12.953125 4 4 12.953125 4 24 C 4 35.046875 12.953125 44 24 44 C 35.046875 44 44 35.046875 44 24 C 44 12.953125 35.046875 4 24 4 Z M 24 4 "/>
<path style=" stroke:none;fill-rule:nonzero;fill:rgb(100%,100%,100%);fill-opacity:1;" d="M 33.949219 15 L 30.203125 34.125 C 30.203125 34.125 30.042969 35 28.960938 35 C 28.382812 35 28.085938 34.726562 28.085938 34.726562 L 19.972656 27.992188 L 16.003906 25.992188 L 10.90625 24.636719 C 10.90625 24.636719 10 24.375 10 23.625 C 10 23 10.933594 22.703125 10.933594 22.703125 L 32.25 14.234375 C 32.246094 14.234375 32.898438 14 33.375 14 C 33.667969 14 34 14.125 34 14.5 C 34 14.75 33.949219 15 33.949219 15 Z M 33.949219 15 "/>
<path style=" stroke:none;fill-rule:nonzero;fill:rgb(69.019608%,74.509804%,77.254902%);fill-opacity:1;" d="M 23 30.503906 L 19.574219 33.878906 C 19.574219 33.878906 19.425781 33.992188 19.226562 34 C 19.15625 34 19.082031 33.988281 19.007812 33.957031 L 19.972656 27.992188 Z M 23 30.503906 "/>
<path style=" stroke:none;fill-rule:nonzero;fill:rgb(81.176471%,84.705882%,86.27451%);fill-opacity:1;" d="M 29.898438 18.195312 C 29.726562 17.976562 29.414062 17.9375 29.195312 18.101562 L 16 26 C 16 26 18.105469 31.890625 18.425781 32.910156 C 18.75 33.933594 19.007812 33.957031 19.007812 33.957031 L 19.972656 27.992188 L 29.804688 18.894531 C 30.023438 18.730469 30.0625 18.414062 29.898438 18.195312 Z M 29.898438 18.195312 "/>
</g>
</svg>
