<?xml version="1.0"?>
<svg xmlns="http://www.w3.org/2000/svg" xmlns:xlink="http://www.w3.org/1999/xlink" version="1.1" viewBox="0 0 192 192" width="48px" height="48px"><g fill="none" fill-rule="none" stroke="none" stroke-width="1" stroke-linecap="butt" stroke-linejoin="miter" stroke-miterlimit="10" stroke-dasharray="" stroke-dashoffset="0" font-family="none" font-weight="none" font-size="none" text-anchor="none" style="mix-blend-mode: normal"><path d="M0,192v-192h192v192z" fill="none" fill-rule="nonzero"/><path d="M96,192c-53.01934,0 -96,-42.98066 -96,-96v0c0,-53.01934 42.98066,-96 96,-96v0c53.01934,0 96,42.98066 96,96v0c0,53.01934 -42.98066,96 -96,96z" fill="#2ecc71" fill-rule="nonzero"/><g><g id="surface1"><path d="M34.72193,157.89688l8.625,-31.475c-5.325,-9.2125 -8.1125,-19.6625 -8.1125,-30.3625c0.0125,-33.4875 27.2625,-60.7375 60.7625,-60.7375c16.25,0.0125 31.5,6.3375 42.975,17.8125c11.4625,11.475 17.7875,26.7375 17.775,42.9625c-0.0125,33.5 -27.275,60.7375 -60.75,60.7375c-0.0125,0 0,0 0,0h-0.025c-10.175,0 -20.1625,-2.55 -29.0375,-7.3875z" fill="#ffffff" fill-rule="nonzero"/><path d="M34.72193,159.49688c-0.425,0 -0.825,-0.175 -1.1375,-0.475c-0.4,-0.4125 -0.55,-1 -0.4,-1.55l8.4375,-30.8375c-5.225,-9.3 -7.9875,-19.8625 -7.9875,-30.575c0.0125,-34.375 27.9875,-62.3375 62.3625,-62.3375c16.6625,0.0125 32.325,6.5 44.1,18.2875c11.775,11.775 18.2625,27.4375 18.25,44.0875c-0.0125,34.375 -27.9875,62.3375 -62.35,62.3375c-10.2125,0 -20.3,-2.5125 -29.2625,-7.2875l-31.6,8.2875c-0.1375,0.0375 -0.275,0.0625 -0.4125,0.0625z" fill="#ffffff" fill-rule="nonzero"/><path d="M95.99693,35.32188c16.25,0.0125 31.5,6.3375 42.975,17.8125c11.4625,11.475 17.7875,26.7375 17.775,42.9625c-0.0125,33.5 -27.275,60.7375 -60.75,60.7375h-0.025c-10.175,0 -20.1625,-2.55 -29.0375,-7.3875l-32.2125,8.45l8.625,-31.475c-5.325,-9.2125 -8.1125,-19.6625 -8.1125,-30.3625c0.0125,-33.4875 27.2625,-60.7375 60.7625,-60.7375M95.99693,156.83437v0M95.99693,156.83437v0M95.99693,32.12188c-35.2625,0 -63.95,28.675 -63.9625,63.9375c0,10.775 2.7125,21.3875 7.875,30.7875l-8.275,30.2c-0.3,1.1125 0.0125,2.2875 0.8125,3.1c0.6125,0.6125 1.4375,0.95 2.275,0.95c0.275,0 0.55,-0.0375 0.8125,-0.1125l31,-8.125c9.05,4.7 19.2,7.175 29.4375,7.1875c35.275,0 63.9625,-28.6875 63.975,-63.9375c0.0125,-17.0875 -6.6375,-33.15 -18.7125,-45.2375c-12.075,-12.0875 -28.15,-18.7375 -45.2375,-18.75z" fill="#cfd8dc" fill-rule="nonzero"/><path d="M131.70942,60.38437c-9.5375,-9.5375 -22.2125,-14.8 -35.7,-14.8c-27.85,0 -50.5125,22.6375 -50.525,50.475c0,9.5375 2.675,18.825 7.725,26.8625l1.2,1.9125l-5.1,18.625l19.1125,-5.0125l1.85,1.1c7.75,4.6 16.6375,7.0375 25.7,7.0375h0.025c27.825,0 50.475,-22.65 50.4875,-50.4875c0.0125,-13.4875 -5.2375,-26.175 -14.775,-35.7125z" fill="#40c351" fill-rule="nonzero"/><path d="M80.80942,70.67188c-1.1375,-2.5375 -2.3375,-2.5875 -3.425,-2.625c-0.8875,-0.0375 -1.9,-0.0375 -2.9125,-0.0375c-1,0 -2.65,0.375 -4.0375,1.9c-1.4,1.5125 -5.325,5.1875 -5.325,12.6625c0,7.4625 5.45,14.6875 6.2,15.7c0.7625,1 10.5125,16.825 25.9375,22.9125c12.825,5.05 15.4375,4.05 18.2125,3.8c2.7875,-0.2625 8.9875,-3.675 10.25,-7.225c1.2625,-3.5375 1.2625,-6.575 0.8875,-7.2125c-0.375,-0.6375 -1.3875,-1.0125 -2.9125,-1.775c-1.5125,-0.7625 -8.975,-4.425 -10.375,-4.9375c-1.3875,-0.5 -2.4,-0.75 -3.4125,0.7625c-1.0125,1.5125 -3.925,4.9375 -4.8125,5.95c-0.8875,1.0125 -1.7625,1.1375 -3.2875,0.3875c-1.5125,-0.7625 -6.4,-2.3625 -12.2,-7.5375c-4.5125,-4.025 -7.5625,-8.9875 -8.45,-10.5125c-0.8875,-1.5125 -0.1,-2.3375 0.6625,-3.1c0.6875,-0.675 1.525,-1.775 2.2875,-2.6625c0.75,-0.8875 1,-1.5125 1.5125,-2.525c0.5,-1.0125 0.25,-1.9 -0.125,-2.6625c-0.375,-0.7625 -3.325,-8.2625 -4.675,-11.2625z" fill="#ffffff" fill-rule="evenodd"/></g></g><path d="M96,192c-53.01934,0 -96,-42.98066 -96,-96v0c0,-53.01934 42.98066,-96 96,-96v0c53.01934,0 96,42.98066 96,96v0c0,53.01934 -42.98066,96 -96,96z" fill="none" fill-rule="nonzero"/><path d="M96,188.16c-50.89856,0 -92.16,-41.26144 -92.16,-92.16v0c0,-50.89856 41.26144,-92.16 92.16,-92.16v0c50.89856,0 92.16,41.26144 92.16,92.16v0c0,50.89856 -41.26144,92.16 -92.16,92.16z" fill="none" fill-rule="nonzero"/></g></svg>
