<?xml version="1.0"?>
<svg xmlns="http://www.w3.org/2000/svg" xmlns:xlink="http://www.w3.org/1999/xlink" version="1.1" viewBox="0 0 192 192" width="48px" height="48px"><g fill="none" fill-rule="nonzero" stroke="none" stroke-width="1" stroke-linecap="butt" stroke-linejoin="miter" stroke-miterlimit="10" stroke-dasharray="" stroke-dashoffset="0" font-family="none" font-weight="none" font-size="none" text-anchor="none" style="mix-blend-mode: normal"><path d="M0,192v-192h192v192z" fill="none"/><path d="M96,192c-53.01934,0 -96,-42.98066 -96,-96v0c0,-53.01934 42.98066,-96 96,-96v0c53.01934,0 96,42.98066 96,96v0c0,53.01934 -42.98066,96 -96,96z" fill="#333333"/><g><g id="surface1"><path d="M152.32002,125.00861c-1.16767,6.15889 -6.14744,10.85247 -12.30634,11.7225c-9.67335,1.46531 -25.79179,3.22827 -43.95937,3.22827c-17.88139,0 -33.99983,-1.76295 -43.95937,-3.22827c-6.15889,-0.87003 -11.13866,-5.56361 -12.30634,-11.7225c-1.17912,-6.73128 -2.34679,-16.70227 -2.34679,-29.00861c0,-12.30634 1.16767,-22.27733 2.34679,-29.00861c1.16767,-6.15889 6.14745,-10.85247 12.30634,-11.7225c9.67335,-1.46531 25.79179,-3.22827 43.95937,-3.22827c18.16759,0 33.99983,1.76296 43.95937,3.22827c6.15889,0.87003 11.13866,5.56361 12.30634,11.7225c1.17912,6.73128 2.64443,16.70227 2.64443,29.00861c-0.29764,12.30634 -1.46531,22.27733 -2.64443,29.00861z" fill="#ff3d00"/><path d="M84.3318,116.51437v-41.02875l35.1675,20.51437z" fill="#ffffff"/></g></g></g></svg>
