<?xml version="1.0" encoding="UTF-8"?>
<svg xmlns="http://www.w3.org/2000/svg" xmlns:xlink="http://www.w3.org/1999/xlink" width="48pt" height="48pt" viewBox="0 0 48 48" version="1.1">
<g id="surface2291192">
<path style=" stroke:none;fill-rule:nonzero;fill:rgb(0%,73.72549%,83.137255%);fill-opacity:1;" d="M 43.199219 33.898438 C 42.800781 36 41.101562 37.601562 39 37.898438 C 35.699219 38.398438 30.199219 39 24 39 C 17.898438 39 12.398438 38.398438 9 37.898438 C 6.898438 37.601562 5.199219 36 4.800781 33.898438 C 4.398438 31.601562 4 28.199219 4 24 C 4 19.800781 4.398438 16.398438 4.800781 14.101562 C 5.199219 12 6.898438 10.398438 9 10.101562 C 12.300781 9.601562 17.800781 9 24 9 C 30.199219 9 35.601562 9.601562 39 10.101562 C 41.101562 10.398438 42.800781 12 43.199219 14.101562 C 43.601562 16.398438 44.101562 19.800781 44.101562 24 C 44 28.199219 43.601562 31.601562 43.199219 33.898438 Z M 43.199219 33.898438 "/>
<path style=" stroke:none;fill-rule:nonzero;fill:rgb(100%,100%,100%);fill-opacity:1;" d="M 20 31 L 20 17 L 32 24 Z M 20 31 "/>
</g>
</svg>
